<?xml version="1.0" encoding="UTF-8" standalone="no"?>
<svg
   viewBox="0 0 512 512"
   version="1.1"
   id="svg1"
   sodipodi:docname="hand.svg"
   width="16"
   height="16"
   inkscape:version="1.3.2 (091e20ef0f, 2023-11-25, custom)"
   xmlns:inkscape="http://www.inkscape.org/namespaces/inkscape"
   xmlns:sodipodi="http://sodipodi.sourceforge.net/DTD/sodipodi-0.dtd"
   xmlns="http://www.w3.org/2000/svg"
   xmlns:svg="http://www.w3.org/2000/svg">
  <defs
     id="defs1" />
  <sodipodi:namedview
     id="namedview1"
     pagecolor="#ffffff"
     bordercolor="#000000"
     borderopacity="0.25"
     inkscape:showpageshadow="2"
     inkscape:pageopacity="0.0"
     inkscape:pagecheckerboard="0"
     inkscape:deskcolor="#d1d1d1"
     inkscape:zoom="1.1642403"
     inkscape:cx="350.01366"
     inkscape:cy="213.44391"
     inkscape:window-width="1920"
     inkscape:window-height="1020"
     inkscape:window-x="1280"
     inkscape:window-y="32"
     inkscape:window-maximized="1"
     inkscape:current-layer="svg1" />
  <!--! Font Awesome Free 6.5.2 by @fontawesome - https://fontawesome.com License - https://fontawesome.com/license/free (Icons: CC BY 4.0, Fonts: SIL OFL 1.1, Code: MIT License) Copyright 2024 Fonticons, Inc. -->
  <path
     d="M 288,32 C 288,14.3 273.7,0 256,0 238.3,0 224,14.3 224,32 v 208 c 0,8.8 -7.2,16 -16,16 -8.8,0 -16,-7.2 -16,-16 V 64 c 0,-17.7 -14.3,-32 -32,-32 -17.7,0 -32,14.3 -32,32 v 272 c 0,1.5 0,3.1 0.1,4.6 L 67.6,283 c -16,-15.2 -41.3,-14.6 -56.6,1.4 -15.3,16 -14.6,41.3 1.4,56.6 l 112.4,107 c 43.1,41.1 100.4,64 160,64 H 304 c 97.2,0 176,-78.8 176,-176 V 128 c 0,-17.7 -14.3,-32 -32,-32 -17.7,0 -32,14.3 -32,32 v 112 c 0,8.8 -7.2,16 -16,16 -8.8,0 -16,-7.2 -16,-16 V 64 c 0,-17.7 -14.3,-32 -32,-32 -17.7,0 -32,14.3 -32,32 v 176 c 0,8.8 -7.2,16 -16,16 -8.8,0 -16,-7.2 -16,-16 z"
     id="path1"
     style="fill:#8da5f3;fill-opacity:1" />
</svg>
