<?xml version="1.0" encoding="UTF-8" standalone="no"?>
<svg
   viewBox="0 0 575.99539 575.99539"
   version="1.1"
   id="svg1"
   sodipodi:docname="counter.svg"
   width="16"
   height="16"
   inkscape:version="1.3.2 (091e20ef0f, 2023-11-25, custom)"
   xmlns:inkscape="http://www.inkscape.org/namespaces/inkscape"
   xmlns:sodipodi="http://sodipodi.sourceforge.net/DTD/sodipodi-0.dtd"
   xmlns="http://www.w3.org/2000/svg"
   xmlns:svg="http://www.w3.org/2000/svg">
  <defs
     id="defs1" />
  <sodipodi:namedview
     id="namedview1"
     pagecolor="#ffffff"
     bordercolor="#000000"
     borderopacity="0.25"
     inkscape:showpageshadow="2"
     inkscape:pageopacity="0.0"
     inkscape:pagecheckerboard="0"
     inkscape:deskcolor="#d1d1d1"
     inkscape:zoom="18.627844"
     inkscape:cx="7.5424724"
     inkscape:cy="9.6897956"
     inkscape:window-width="1920"
     inkscape:window-height="1020"
     inkscape:window-x="1280"
     inkscape:window-y="32"
     inkscape:window-maximized="1"
     inkscape:current-layer="svg1" />
  <!--! Font Awesome Free 6.5.2 by @fontawesome - https://fontawesome.com License - https://fontawesome.com/license/free (Icons: CC BY 4.0, Fonts: SIL OFL 1.1, Code: MIT License) Copyright 2024 Fonticons, Inc. -->
  <path
     d="m 167.98227,63.997695 c 9,0 17.5,3.8 23.6,10.4 l 88,95.999995 c 11.9,13 11.1,33.3 -2,45.20001 -13.1,11.9 -33.3,11.09999 -45.2,-2 l -32.4,-35.3 v 301.69999 c 0,17.7 -14.3,32 -32,32 -17.7,0 -32,-14.3 -32,-32 V 178.2977 l -32.4,35.3 c -11.900002,13 -32.200002,13.9 -45.200002,2 -13,-11.90001 -13.9,-32.2 -2,-45.2 L 144.38227,74.397695 c 6.1,-6.6 14.6,-10.4 23.6,-10.4 z m 290.7,261.999995 c 8.3,6 13.3,15.7 13.3,26 v 96 h 16 c 17.7,0 32,14.3 32,32 0,17.7 -14.3,32 -32,32 h -48 -48 c -17.7,0 -32,-14.3 -32,-32 0,-17.7 14.3,-32 32,-32 h 16 v -51.6 l -5.9,2 c -16.8,5.6 -34.9,-3.5 -40.5,-20.2 -5.6,-16.7 3.5,-34.9 20.2,-40.5 l 48,-16 c 9.8,-3.3 20.5,-1.6 28.8,4.4 z m -5,-145.1 a 32.027996,32.027996 0 1 0 -27.4,-57.89999 32.027996,32.027996 0 1 0 27.4,57.89999 z m -40.7,54.90001 c -35.4,-11.40001 -61,-44.60001 -61,-83.8 0,-48.6 39.4,-88.000005 88,-88.000005 48.6,0 88,39.400005 88,88.000005 0,23.5 -7.5,46.3 -21.5,65.19999 l -48.8,65.80001 c -10.5,14.19999 -30.6,17.19999 -44.8,6.69999 -14.2,-10.5 -17.2,-30.6 -6.7,-44.8 l 6.8,-9.2 z"
     id="path1"
     style="fill:#e0e0e0" />
</svg>
