<?xml version="1.0" encoding="UTF-8" standalone="no"?>
<svg
   viewBox="0 0 512 512"
   version="1.1"
   id="svg1"
   sodipodi:docname="edible.svg"
   width="16"
   height="16"
   inkscape:version="1.3.2 (091e20ef0f, 2023-11-25, custom)"
   xmlns:inkscape="http://www.inkscape.org/namespaces/inkscape"
   xmlns:sodipodi="http://sodipodi.sourceforge.net/DTD/sodipodi-0.dtd"
   xmlns="http://www.w3.org/2000/svg"
   xmlns:svg="http://www.w3.org/2000/svg">
  <defs
     id="defs1" />
  <sodipodi:namedview
     id="namedview1"
     pagecolor="#ffffff"
     bordercolor="#000000"
     borderopacity="0.25"
     inkscape:showpageshadow="2"
     inkscape:pageopacity="0.0"
     inkscape:pagecheckerboard="0"
     inkscape:deskcolor="#d1d1d1"
     inkscape:zoom="1.6464844"
     inkscape:cx="256"
     inkscape:cy="256"
     inkscape:window-width="1920"
     inkscape:window-height="1020"
     inkscape:window-x="1280"
     inkscape:window-y="32"
     inkscape:window-maximized="1"
     inkscape:current-layer="svg1" />
  <!--! Font Awesome Free 6.5.2 by @fontawesome - https://fontawesome.com License - https://fontawesome.com/license/free (Icons: CC BY 4.0, Fonts: SIL OFL 1.1, Code: MIT License) Copyright 2024 Fonticons, Inc. -->
  <path
     d="m 0,192 c 0,-35.3 28.7,-64 64,-64 0.5,0 1.1,0 1.6,0 7.4,-36.5 39.7,-64 78.4,-64 15,0 29,4.1 40.9,11.2 C 198.2,49.6 225.1,32 256,32 286.9,32 313.8,49.6 327.1,75.2 339,68.1 353,64 368,64 c 38.7,0 71,27.5 78.4,64 0.5,0 1.1,0 1.6,0 35.3,0 64,28.7 64,64 0,11.7 -3.1,22.6 -8.6,32 H 8.6 C 3.1,214.6 0,203.7 0,192 Z m 0,91.4 C 0,268.3 12.3,256 27.4,256 h 457.2 c 15.1,0 27.4,12.3 27.4,27.4 0,70.5 -44.4,130.7 -106.7,154.1 l -1.8,14.5 c -2,16 -15.6,28 -31.8,28 H 140.2 c -16.1,0 -29.8,-12 -31.8,-28 l -1.8,-14.4 C 44.4,414.1 0,353.9 0,283.4 Z"
     id="path1"
     style="fill:#e0e0e0" />
</svg>
