<?xml version="1.0" encoding="UTF-8" standalone="no"?>
<svg
   viewBox="0 0 512 512"
   version="1.1"
   id="svg1"
   sodipodi:docname="hover_detector.svg"
   inkscape:version="1.3.2 (091e20ef0f, 2023-11-25, custom)"
   width="16"
   height="16"
   xmlns:inkscape="http://www.inkscape.org/namespaces/inkscape"
   xmlns:sodipodi="http://sodipodi.sourceforge.net/DTD/sodipodi-0.dtd"
   xmlns="http://www.w3.org/2000/svg"
   xmlns:svg="http://www.w3.org/2000/svg">
  <defs
     id="defs1" />
  <sodipodi:namedview
     id="namedview1"
     pagecolor="#ffffff"
     bordercolor="#000000"
     borderopacity="0.25"
     inkscape:showpageshadow="2"
     inkscape:pageopacity="0.0"
     inkscape:pagecheckerboard="0"
     inkscape:deskcolor="#d1d1d1"
     inkscape:zoom="3.2929688"
     inkscape:cx="58.761565"
     inkscape:cy="46.918149"
     inkscape:window-width="1920"
     inkscape:window-height="1020"
     inkscape:window-x="3200"
     inkscape:window-y="32"
     inkscape:window-maximized="1"
     inkscape:current-layer="svg1" />
  <!--! Font Awesome Free 6.5.2 by @fontawesome - https://fontawesome.com License - https://fontawesome.com/license/free (Icons: CC BY 4.0, Fonts: SIL OFL 1.1, Code: MIT License) Copyright 2024 Fonticons, Inc. -->
  <path
     d="M 96,55.207682 V 426.00768 c 0,12.2 9.9,22 22,22 6.3,0 12.4,-2.7 16.6,-7.5 l 82.6,-94.5 58.1,116.3 c 7.9,15.8 27.1,22.2 42.9,14.3 15.8,-7.9 22.2,-27.1 14.3,-42.9 l -56.7,-113.7 h 118.1 c 12.2,0 22.1,-9.9 22.1,-22.1 0,-6.3 -2.7,-12.3 -7.4,-16.5 L 134.6,37.907682 c -4.3,-3.8 -9.7,-5.9 -15.4,-5.9 -12.8,0 -23.2,10.4 -23.2,23.2 z"
     id="path1"
     style="fill:#8da5f3" />
</svg>
