<?xml version="1.0" encoding="UTF-8" standalone="no"?>
<svg
   viewBox="0 0 640 640"
   version="1.1"
   id="svg1"
   sodipodi:docname="monster_type.svg"
   width="16"
   height="16"
   inkscape:version="1.3.2 (091e20ef0f, 2023-11-25, custom)"
   xmlns:inkscape="http://www.inkscape.org/namespaces/inkscape"
   xmlns:sodipodi="http://sodipodi.sourceforge.net/DTD/sodipodi-0.dtd"
   xmlns="http://www.w3.org/2000/svg"
   xmlns:svg="http://www.w3.org/2000/svg">
  <defs
     id="defs1" />
  <sodipodi:namedview
     id="namedview1"
     pagecolor="#ffffff"
     bordercolor="#000000"
     borderopacity="0.25"
     inkscape:showpageshadow="2"
     inkscape:pageopacity="0.0"
     inkscape:pagecheckerboard="0"
     inkscape:deskcolor="#d1d1d1"
     inkscape:zoom="18.627844"
     inkscape:cx="9.5019047"
     inkscape:cy="16.614912"
     inkscape:window-width="1920"
     inkscape:window-height="1020"
     inkscape:window-x="1280"
     inkscape:window-y="32"
     inkscape:window-maximized="1"
     inkscape:current-layer="svg1" />
  <!--! Font Awesome Free 6.5.2 by @fontawesome - https://fontawesome.com License - https://fontawesome.com/license/free (Icons: CC BY 4.0, Fonts: SIL OFL 1.1, Code: MIT License) Copyright 2024 Fonticons, Inc. -->
  <path
     d="m 208,128 a 16,16 0 1 0 -32,0 16,16 0 1 0 32,0 z m 48,0 c 0,16.2 -6,31.1 -16,42.3 l 15.6,31.2 c 18.7,-6 39.9,-9.5 64.4,-9.5 24.5,0 45.8,3.5 64.4,9.5 L 400,170.3 c -10,-11.2 -16,-26.1 -16,-42.3 0,-35.3 28.7,-64 64,-64 35.3,0 64,28.7 64,64 0,35.3 -28.7,64 -64,64 -1.7,0 -3.4,-0.1 -5.1,-0.2 L 427.8,222 c 21.1,13.6 37.7,30.2 51.4,46.4 7.1,8.3 13.5,16.6 19.3,24 l 1.4,1.8 c 6.3,8.1 11.6,14.8 16.7,20.4 10.7,11.7 16.1,13.4 19.4,13.4 2.5,0 4.3,-0.6 7.1,-3.3 3.7,-3.5 7.1,-8.8 12.5,-17.4 l 0.6,-0.9 c 4.6,-7.4 11,-17.6 19.4,-25.7 9.7,-9.3 22.9,-16.7 40.4,-16.7 13.3,0 24,10.7 24,24 0,13.3 -10.7,24 -24,24 -2.5,0 -4.3,0.6 -7.1,3.3 -3.7,3.5 -7.1,8.8 -12.5,17.4 l -0.6,0.9 c -4.6,7.4 -11,17.6 -19.4,25.7 -9.7,9.3 -22.9,16.7 -40.4,16.7 -18.5,0 -32.9,-8.5 -44.3,-18.6 -3.1,4 -6.6,8.3 -10.5,12.7 1.4,4.3 2.8,8.5 4,12.5 0.9,3 1.8,5.8 2.6,8.6 3,9.8 5.5,18.2 8.6,25.9 3.9,9.8 7.4,15.4 10.8,18.5 2.6,2.4 5.9,4.3 12.8,4.3 8.7,0 16.9,-4.2 33.7,-13.2 15,-8 35.7,-18.8 62.3,-18.8 13.3,0 24,10.7 24,24 0,13.3 -10.7,24 -24,24 -13.4,0 -24.7,5.2 -39.7,13.2 -1,0.6 -2.1,1.1 -3.2,1.7 -13.2,7.2 -31.7,17.2 -53.1,17.2 -18.4,0 -33.6,-6.1 -45.5,-17.2 -11.1,-10.3 -17.9,-23.7 -22.7,-36 -3.6,-9 -6.7,-19.1 -9.5,-28.5 -16.4,12.3 -36.1,23.6 -58.9,31.3 3.6,10.8 8.4,23.5 14.4,36.2 7.5,15.9 16.2,30.4 25.8,40.5 9.4,10.2 17.6,13.7 24.4,13.7 13.3,0 24,10.7 24,24 0,13.3 -10.7,24 -24,24 -25.2,0 -45,-13.5 -59.5,-28.8 -14.5,-15.4 -25.7,-34.9 -34.2,-53 -8,-17 -14.1,-33.8 -18.3,-46.9 -5.2,0.4 -10.6,0.6 -16,0.6 -5.4,0 -10.8,-0.2 -16,-0.6 -4.2,13 -10.3,29.9 -18.3,46.9 -8.5,18.1 -19.8,37.6 -34.2,53 C 237,562.5 217.2,576 192,576 c -13.3,0 -24,-10.7 -24,-24 0,-13.3 10.7,-24 24,-24 6.8,0 15,-3.5 24.5,-13.7 9.5,-10.1 18.3,-24.6 25.8,-40.5 5.9,-12.6 10.7,-25.4 14.4,-36.2 -22.8,-7.7 -42.5,-19 -58.9,-31.3 -2.9,9.4 -6,19.5 -9.5,28.5 -4.8,12.2 -11.6,25.6 -22.7,36 -12,11.1 -27.2,17.2 -45.6,17.2 -21.4,0 -39.9,-10 -53.1,-17.1 v 0 c -1.1,-0.6 -2.2,-1.2 -3.2,-1.7 C 48.7,461.2 37.4,456 24,456 10.7,456 0,445.3 0,432 c 0,-13.3 10.7,-24 24,-24 26.6,0 47.3,10.8 62.3,18.8 16.8,9 25,13.2 33.7,13.2 6.8,0 10.2,-1.9 12.8,-4.3 3.4,-3.2 7,-8.8 10.8,-18.5 3,-7.7 5.6,-16.1 8.6,-25.9 0.8,-2.7 1.7,-5.6 2.6,-8.6 1.2,-4 2.6,-8.2 4,-12.5 -3.9,-4.5 -7.4,-8.8 -10.5,-12.7 C 136.9,367.5 122.5,376 104,376 86.5,376 73.3,368.6 63.6,359.3 55.2,351.2 48.8,341 44.2,333.6 l -0.6,-0.9 C 38.2,324.1 34.8,318.8 31.1,315.3 28.3,312.6 26.5,312 24,312 10.7,312 0,301.3 0,288 c 0,-13.3 10.7,-24 24,-24 17.5,0 30.7,7.4 40.4,16.7 8.4,8.1 14.8,18.3 19.4,25.7 l 0.6,0.9 c 5.4,8.6 8.8,13.9 12.5,17.4 2.8,2.7 4.6,3.3 7.1,3.3 3.3,0 8.7,-1.7 19.4,-13.4 5.1,-5.6 10.4,-12.3 16.7,-20.4 l 1.4,-1.8 c 5.8,-7.4 12.2,-15.7 19.3,-24 13.8,-16.2 30.3,-32.8 51.4,-46.4 l -15.1,-30.2 c -1.7,0.1 -3.4,0.2 -5.1,0.2 -35.3,0 -64,-28.7 -64,-64 0,-35.3 28.7,-64 64,-64 35.3,0 64,28.7 64,64 z m 208,0 a 16,16 0 1 0 -32,0 16,16 0 1 0 32,0 z"
     id="path1"
     style="fill:#e0e0e0" />
</svg>
