<?xml version="1.0" encoding="UTF-8" standalone="no"?>
<svg
   viewBox="0 0 512 512"
   version="1.1"
   id="svg1"
   sodipodi:docname="sampler.svg"
   width="16"
   height="16"
   inkscape:version="1.3.2 (091e20ef0f, 2023-11-25, custom)"
   xmlns:inkscape="http://www.inkscape.org/namespaces/inkscape"
   xmlns:sodipodi="http://sodipodi.sourceforge.net/DTD/sodipodi-0.dtd"
   xmlns="http://www.w3.org/2000/svg"
   xmlns:svg="http://www.w3.org/2000/svg">
  <defs
     id="defs1" />
  <sodipodi:namedview
     id="namedview1"
     pagecolor="#ffffff"
     bordercolor="#000000"
     borderopacity="0.25"
     inkscape:showpageshadow="2"
     inkscape:pageopacity="0.0"
     inkscape:pagecheckerboard="0"
     inkscape:deskcolor="#d1d1d1"
     inkscape:zoom="13.171875"
     inkscape:cx="16.778173"
     inkscape:cy="17.651246"
     inkscape:window-width="1920"
     inkscape:window-height="1020"
     inkscape:window-x="3200"
     inkscape:window-y="32"
     inkscape:window-maximized="1"
     inkscape:current-layer="svg1" />
  <!--! Font Awesome Free 6.5.2 by @fontawesome - https://fontawesome.com License - https://fontawesome.com/license/free (Icons: CC BY 4.0, Fonts: SIL OFL 1.1, Code: MIT License) Copyright 2024 Fonticons, Inc. -->
  <path
     d="m 48,368 a 48,48 0 1 1 0,96 48,48 0 1 1 0,-96 z"
     id="path6"
     style="fill:#e0e0e0" />
  <path
     d="m 160,416 c 0,-17.7 14.3,-32 32,-32 h 288 c 17.7,0 32,14.3 32,32 0,17.7 -14.3,32 -32,32 H 192 c -17.7,0 -32,-14.3 -32,-32 z"
     id="path5"
     style="fill:#e0e0e0" />
  <path
     d="m 160,256 c 0,-17.7 14.3,-32 32,-32 h 288 c 17.7,0 32,14.3 32,32 0,17.7 -14.3,32 -32,32 H 192 c -17.7,0 -32,-14.3 -32,-32 z"
     id="path5-7"
     style="fill:#e0e0e0" />
  <path
     d="m 224,96 c 0,-17.7 14.3,-32 32,-32 h 224 c 17.7,0 32,14.3 32,32 0,17.7 -14.3,32 -32,32 H 256 c -17.7,0 -32,-14.3 -32,-32 z"
     id="path3"
     style="fill:#e0e0e0" />
  <path
     d="m 152.1,38.2 c 9.9,8.9 10.7,24 1.8,33.9 l -72,80 c -4.4,4.9 -10.6,7.8 -17.2,7.9 -6.6,0.1 -12.9,-2.4 -17.6,-7 L 7,113 c -9.3,-9.4 -9.3,-24.6 0,-34 9.3,-9.4 24.6,-9.4 33.9,0 L 63,101.1 118.1,39.9 C 127,30 142.1,29.2 152,38.1 Z"
     id="path1"
     style="fill:#8eef97" />
  <path
     d="M 96,256 A 48,48 0 1 0 5e-7,256 48,48 0 1 0 96,256 Z"
     id="path6-5"
     style="fill:#e0e0e0" />
</svg>
