<?xml version="1.0" encoding="UTF-8" standalone="no"?>
<svg
   viewBox="0 0 640 640"
   version="1.1"
   id="svg1"
   sodipodi:docname="spawner.svg"
   width="16"
   height="16"
   inkscape:version="1.3.2 (091e20ef0f, 2023-11-25, custom)"
   xmlns:inkscape="http://www.inkscape.org/namespaces/inkscape"
   xmlns:sodipodi="http://sodipodi.sourceforge.net/DTD/sodipodi-0.dtd"
   xmlns="http://www.w3.org/2000/svg"
   xmlns:svg="http://www.w3.org/2000/svg">
  <defs
     id="defs1" />
  <sodipodi:namedview
     id="namedview1"
     pagecolor="#ffffff"
     bordercolor="#000000"
     borderopacity="0.25"
     inkscape:showpageshadow="2"
     inkscape:pageopacity="0.0"
     inkscape:pagecheckerboard="0"
     inkscape:deskcolor="#d1d1d1"
     inkscape:zoom="26.34375"
     inkscape:cx="13.001186"
     inkscape:cy="9.9264532"
     inkscape:window-width="1920"
     inkscape:window-height="1020"
     inkscape:window-x="1280"
     inkscape:window-y="32"
     inkscape:window-maximized="1"
     inkscape:current-layer="svg1" />
  <!--! Font Awesome Free 6.5.2 by @fontawesome - https://fontawesome.com License - https://fontawesome.com/license/free (Icons: CC BY 4.0, Fonts: SIL OFL 1.1, Code: MIT License) Copyright 2024 Fonticons, Inc. -->
  <path
     d="m 504,376 v -64 h -64 c -13.3,0 -24,-10.7 -24,-24 0,-13.3 10.7,-24 24,-24 h 64 v -64 c 0,-13.3 10.7,-24 24,-24 13.3,0 24,10.7 24,24 v 64 h 64 c 13.3,0 24,10.7 24,24 0,13.3 -10.7,24 -24,24 h -64 v 64 c 0,13.3 -10.7,24 -24,24 -13.3,0 -24,-10.7 -24,-24 z"
     id="path3"
     style="fill:#73f280;fill-opacity:1" />
  <path
     d="M 0,546.3 C 0,447.8 79.8,368 178.3,368 h 91.4 c 98.5,0 178.3,79.8 178.3,178.3 0,16.4 -13.3,29.7 -29.7,29.7 H 29.7 C 13.3,576 0,562.7 0,546.3 Z"
     id="path2"
     style="fill:#8da5f3" />
  <path
     d="m 96,192 a 128,128 0 1 1 256,0 128,128 0 1 1 -256,0 z"
     id="path1"
     style="fill:#8da5f3" />
</svg>
