<?xml version="1.0" encoding="UTF-8" standalone="no"?>
<svg
   viewBox="0 0 512 512"
   version="1.1"
   id="svg1"
   sodipodi:docname="summoning_circle.svg"
   width="16"
   height="16"
   inkscape:version="1.3.2 (091e20ef0f, 2023-11-25, custom)"
   xmlns:inkscape="http://www.inkscape.org/namespaces/inkscape"
   xmlns:sodipodi="http://sodipodi.sourceforge.net/DTD/sodipodi-0.dtd"
   xmlns="http://www.w3.org/2000/svg"
   xmlns:svg="http://www.w3.org/2000/svg">
  <defs
     id="defs1" />
  <sodipodi:namedview
     id="namedview1"
     pagecolor="#ffffff"
     bordercolor="#000000"
     borderopacity="0.25"
     inkscape:showpageshadow="2"
     inkscape:pageopacity="0.0"
     inkscape:pagecheckerboard="0"
     inkscape:deskcolor="#d1d1d1"
     inkscape:zoom="5.5"
     inkscape:cx="-4.9090909"
     inkscape:cy="27.909091"
     inkscape:window-width="1920"
     inkscape:window-height="1020"
     inkscape:window-x="1280"
     inkscape:window-y="32"
     inkscape:window-maximized="1"
     inkscape:current-layer="svg1" />
  <!--! Font Awesome Free 6.5.2 by @fontawesome - https://fontawesome.com License - https://fontawesome.com/license/free (Icons: CC BY 4.0, Fonts: SIL OFL 1.1, Code: MIT License) Copyright 2024 Fonticons, Inc. -->
  <path
     d="M 32,96 C 32,43 75,0 128,0 h 288 32 c 17.7,0 32,14.3 32,32 v 320 c 0,17.7 -14.3,32 -32,32 v 64 c 17.7,0 32,14.3 32,32 0,17.7 -14.3,32 -32,32 H 416 128 C 75,512 32,469 32,416 Z m 64,320 c 0,17.7 14.3,32 32,32 H 384 V 384 H 128 c -17.7,0 -32,14.3 -32,32 z M 352,112 c 0,-35.3 -35.8,-64 -80,-64 -44.2,0 -80,28.7 -80,64 0,20.9 12.6,39.5 32,51.2 V 176 c 0,8.8 7.2,16 16,16 h 64 c 8.8,0 16,-7.2 16,-16 v -12.8 c 19.4,-11.7 32,-30.3 32,-51.2 z M 240,96 a 16,16 0 1 1 0,32 16,16 0 1 1 0,-32 z m 48,16 a 16,16 0 1 1 32,0 16,16 0 1 1 -32,0 z m -121.7,97.3 c -8.1,-3.5 -17.5,0.3 -21,8.4 -3.5,8.1 0.3,17.5 8.4,21 l 77.7,33.3 -77.7,33.3 c -8.1,3.5 -11.9,12.9 -8.4,21 3.5,8.1 12.9,11.9 21,8.4 L 272,289.4 377.7,334.7 c 8.1,3.5 17.5,-0.3 21,-8.4 3.5,-8.1 -0.3,-17.5 -8.4,-21 L 312.6,272 390.3,238.7 c 8.1,-3.5 11.9,-12.9 8.4,-21 -3.5,-8.1 -12.9,-11.9 -21,-8.4 L 272,254.6 Z"
     id="path1"
     style="fill:#e0e0e0" />
</svg>
