<?xml version="1.0" encoding="UTF-8" standalone="no"?>
<svg
   viewBox="0 0 512 512"
   version="1.1"
   id="svg1"
   sodipodi:docname="summoning_circle.svg"
   width="16"
   height="16"
   inkscape:version="1.3.2 (091e20ef0f, 2023-11-25, custom)"
   xmlns:inkscape="http://www.inkscape.org/namespaces/inkscape"
   xmlns:sodipodi="http://sodipodi.sourceforge.net/DTD/sodipodi-0.dtd"
   xmlns="http://www.w3.org/2000/svg"
   xmlns:svg="http://www.w3.org/2000/svg">
  <defs
     id="defs1" />
  <sodipodi:namedview
     id="namedview1"
     pagecolor="#ffffff"
     bordercolor="#000000"
     borderopacity="0.25"
     inkscape:showpageshadow="2"
     inkscape:pageopacity="0.0"
     inkscape:pagecheckerboard="0"
     inkscape:deskcolor="#d1d1d1"
     inkscape:zoom="18.627844"
     inkscape:cx="1.2347108"
     inkscape:cy="4.4288539"
     inkscape:window-width="1280"
     inkscape:window-height="964"
     inkscape:window-x="0"
     inkscape:window-y="60"
     inkscape:window-maximized="1"
     inkscape:current-layer="svg1" />
  <!--! Font Awesome Free 6.5.2 by @fontawesome - https://fontawesome.com License - https://fontawesome.com/license/free (Icons: CC BY 4.0, Fonts: SIL OFL 1.1, Code: MIT License) Copyright 2024 Fonticons, Inc. -->
  <path
     d="m 337.8,205.7 48.6,-42.5 c 13.8,19.3 23.4,41.9 27.4,66.2 l -64.4,4.3 c -2.4,-10.1 -6.4,-19.5 -11.6,-28 z m 140.1,19.5 c -5.3,-38.8 -20.6,-74.5 -43.2,-104.3 l 0.8,-0.7 C 449,108.4 449.7,87.6 437,75 424.3,62.4 403.6,63 391.8,76.5 l -0.7,0.8 C 361.3,54.7 325.6,39.4 286.8,34.1 L 286.9,33 C 288.1,15.1 273.9,0 256,0 238.1,0 223.9,15.2 225.1,33 l 0.1,1.1 c -38.8,5.3 -74.5,20.6 -104.3,43.2 l -0.7,-0.8 C 108.4,63 87.6,62.3 75,75 62.4,87.7 63,108.4 76.5,120.2 l 0.8,0.7 C 54.7,150.7 39.4,186.4 34.1,225.2 L 33,225.1 c -17.9,-1.2 -33,13 -33,30.9 0,17.9 15.2,32.1 33,30.9 l 1.1,-0.1 c 5.3,38.8 20.6,74.5 43.2,104.3 l -0.8,0.7 C 63,403.6 62.3,424.4 75,437 c 12.7,12.6 33.4,12 45.2,-1.5 l 0.7,-0.8 c 29.8,22.6 65.5,37.9 104.3,43.2 l -0.1,1.1 c -1.2,17.9 13,33 30.9,33 17.9,0 32.1,-15.2 30.9,-33 l -0.1,-1.1 c 38.8,-5.3 74.5,-20.6 104.3,-43.2 l 0.7,0.8 c 11.8,13.5 32.5,14.2 45.2,1.5 12.7,-12.7 12,-33.4 -1.5,-45.2 l -0.8,-0.7 c 22.6,-29.8 37.9,-65.5 43.2,-104.3 l 1.1,0.1 c 17.9,1.2 33,-13 33,-30.9 0,-17.9 -15.2,-32.1 -33,-30.9 z M 163.2,125.6 c 19.3,-13.8 41.9,-23.4 66.2,-27.5 l 4.3,64.4 c -10,2.4 -19.5,6.4 -28,11.6 l -42.5,-48.6 z m -65,103.8 c 4.1,-24.4 13.7,-46.9 27.5,-66.2 l 48.6,42.5 c -5.3,8.5 -9.2,18 -11.6,28 l -64.4,-4.3 z m 27.5,119.4 C 111.9,329.5 102.3,306.9 98.2,282.6 l 64.4,-4.3 c 2.4,10 6.4,19.5 11.6,28 l -48.6,42.5 z m 103.8,65 c -24.4,-4.1 -46.9,-13.7 -66.2,-27.4 l 42.5,-48.6 c 8.5,5.3 18,9.2 28,11.6 z m 119.4,-27.4 c -19.3,13.8 -41.9,23.4 -66.2,27.4 l -4.3,-64.4 c 10,-2.4 19.5,-6.4 28,-11.6 z m 65,-103.8 c -4.1,24.4 -13.7,46.9 -27.4,66.2 l -48.6,-42.5 c 5.3,-8.5 9.2,-18 11.6,-28 z m -65,-156.9 -42.5,48.6 c -8.5,-5.3 -18,-9.2 -28,-11.6 l 4.3,-64.4 c 24.4,4.1 46.9,13.7 66.2,27.5 z M 256,224 a 32,32 0 1 1 0,64 32,32 0 1 1 0,-64 z"
     id="path1"
     style="fill:#8da5f3" />
</svg>
