<?xml version="1.0" encoding="UTF-8" standalone="no"?>
<svg
   viewBox="0 0 512 512"
   version="1.1"
   id="svg1"
   sodipodi:docname="target_picker_random.svg"
   inkscape:version="1.3.2 (091e20ef0f, 2023-11-25, custom)"
   width="16"
   height="16"
   xmlns:inkscape="http://www.inkscape.org/namespaces/inkscape"
   xmlns:sodipodi="http://sodipodi.sourceforge.net/DTD/sodipodi-0.dtd"
   xmlns="http://www.w3.org/2000/svg"
   xmlns:svg="http://www.w3.org/2000/svg">
  <defs
     id="defs1" />
  <sodipodi:namedview
     id="namedview1"
     pagecolor="#ffffff"
     bordercolor="#000000"
     borderopacity="0.25"
     inkscape:showpageshadow="2"
     inkscape:pageopacity="0.0"
     inkscape:pagecheckerboard="0"
     inkscape:deskcolor="#d1d1d1"
     inkscape:zoom="1.6464844"
     inkscape:cx="256"
     inkscape:cy="256"
     inkscape:window-width="1920"
     inkscape:window-height="1020"
     inkscape:window-x="3200"
     inkscape:window-y="32"
     inkscape:window-maximized="1"
     inkscape:current-layer="svg1" />
  <!--! Font Awesome Free 6.5.2 by @fontawesome - https://fontawesome.com License - https://fontawesome.com/license/free (Icons: CC BY 4.0, Fonts: SIL OFL 1.1, Code: MIT License) Copyright 2024 Fonticons, Inc. -->
  <path
     d="m 448,256 a 192,192 0 1 0 -384,0 192,192 0 1 0 384,0 z M 0,256 a 256,256 0 1 1 512,0 256,256 0 1 1 -512,0 z m 256,80 a 80,80 0 1 0 0,-160 80,80 0 1 0 0,160 z m 0,-224 a 144,144 0 1 1 0,288 144,144 0 1 1 0,-288 z m -32,144 a 32,32 0 1 1 64,0 32,32 0 1 1 -64,0 z"
     id="path1"
     style="fill:#e0e0e0" />
</svg>
