<?xml version="1.0" encoding="UTF-8" standalone="no"?>
<svg
   viewBox="0 0 512 512"
   version="1.1"
   id="svg1"
   sodipodi:docname="bowl-rice.svg"
   inkscape:version="1.3.2 (091e20ef0f, 2023-11-25, custom)"
   width="16"
   height="16"
   xmlns:inkscape="http://www.inkscape.org/namespaces/inkscape"
   xmlns:sodipodi="http://sodipodi.sourceforge.net/DTD/sodipodi-0.dtd"
   xmlns="http://www.w3.org/2000/svg"
   xmlns:svg="http://www.w3.org/2000/svg">
  <defs
     id="defs1" />
  <sodipodi:namedview
     id="namedview1"
     pagecolor="#ffffff"
     bordercolor="#000000"
     borderopacity="0.25"
     inkscape:showpageshadow="2"
     inkscape:pageopacity="0.0"
     inkscape:pagecheckerboard="0"
     inkscape:deskcolor="#d1d1d1"
     inkscape:zoom="1.6464844"
     inkscape:cx="256"
     inkscape:cy="256"
     inkscape:window-width="1920"
     inkscape:window-height="1020"
     inkscape:window-x="1280"
     inkscape:window-y="32"
     inkscape:window-maximized="1"
     inkscape:current-layer="svg1" />
  <!--! Font Awesome Free 6.5.2 by @fontawesome - https://fontawesome.com License - https://fontawesome.com/license/free (Icons: CC BY 4.0, Fonts: SIL OFL 1.1, Code: MIT License) Copyright 2024 Fonticons, Inc. -->
  <path
     d="m 176,56 c 0,-13.3 10.7,-24 24,-24 h 16 c 13.3,0 24,10.7 24,24 0,13.3 -10.7,24 -24,24 H 200 C 186.7,80 176,69.3 176,56 Z m 24,48 h 16 c 13.3,0 24,10.7 24,24 0,13.3 -10.7,24 -24,24 h -16 c -13.3,0 -24,-10.7 -24,-24 0,-13.3 10.7,-24 24,-24 z M 56,176 h 16 c 13.3,0 24,10.7 24,24 0,13.3 -10.7,24 -24,24 H 56 C 42.7,224 32,213.3 32,200 32,186.7 42.7,176 56,176 Z M 0,283.4 C 0,268.3 12.3,256 27.4,256 h 457.2 c 15.1,0 27.4,12.3 27.4,27.4 0,70.5 -44.4,130.7 -106.7,154.1 l -1.8,14.5 c -2,16 -15.6,28 -31.8,28 H 140.2 c -16.1,0 -29.8,-12 -31.8,-28 l -1.8,-14.4 C 44.4,414.1 0,353.9 0,283.4 Z M 224,200 c 0,-13.3 10.7,-24 24,-24 h 16 c 13.3,0 24,10.7 24,24 0,13.3 -10.7,24 -24,24 h -16 c -13.3,0 -24,-10.7 -24,-24 z m -96,0 c 0,-13.3 10.7,-24 24,-24 h 16 c 13.3,0 24,10.7 24,24 0,13.3 -10.7,24 -24,24 h -16 c -13.3,0 -24,-10.7 -24,-24 z m -24,-96 h 16 c 13.3,0 24,10.7 24,24 0,13.3 -10.7,24 -24,24 h -16 c -13.3,0 -24,-10.7 -24,-24 0,-13.3 10.7,-24 24,-24 z m 216,96 c 0,-13.3 10.7,-24 24,-24 h 16 c 13.3,0 24,10.7 24,24 0,13.3 -10.7,24 -24,24 h -16 c -13.3,0 -24,-10.7 -24,-24 z m -24,-96 h 16 c 13.3,0 24,10.7 24,24 0,13.3 -10.7,24 -24,24 h -16 c -13.3,0 -24,-10.7 -24,-24 0,-13.3 10.7,-24 24,-24 z m 120,96 c 0,-13.3 10.7,-24 24,-24 h 16 c 13.3,0 24,10.7 24,24 0,13.3 -10.7,24 -24,24 h -16 c -13.3,0 -24,-10.7 -24,-24 z m -24,-96 h 16 c 13.3,0 24,10.7 24,24 0,13.3 -10.7,24 -24,24 h -16 c -13.3,0 -24,-10.7 -24,-24 0,-13.3 10.7,-24 24,-24 z M 296,32 h 16 c 13.3,0 24,10.7 24,24 0,13.3 -10.7,24 -24,24 h -16 c -13.3,0 -24,-10.7 -24,-24 0,-13.3 10.7,-24 24,-24 z"
     id="path1"
     style="fill:#8da5f3" />
</svg>
